<?xml version="1.0" standalone="no"?>
<!DOCTYPE svg PUBLIC "-//W3C//DTD SVG 20010904//EN"
 "http://www.w3.org/TR/2001/REC-SVG-20010904/DTD/svg10.dtd">
<svg version="1.0" xmlns="http://www.w3.org/2000/svg"
 width="518.000000pt" height="328.000000pt" viewBox="0 0 518.000000 328.000000"
 preserveAspectRatio="xMidYMid meet">

<g transform="translate(0.000000,328.000000) scale(0.100000,-0.100000)"
fill="#FFFFFF" stroke="none">
<path d="M1500 3210 l0 -70 -95 0 -95 0 0 -95 0 -95 -90 0 -90 0 0 -90 0 -90
-280 0 -280 0 0 -95 0 -95 -280 0 -280 0 0 -90 0 -90 185 0 185 0 0 -95 0 -95
-185 0 -185 0 0 -95 0 -95 185 0 185 0 0 -280 0 -280 95 0 95 0 0 -185 0 -184
93 -3 92 -3 3 -93 3 -92 89 0 90 0 2 188 3 187 183 3 182 2 0 -190 0 -190 95
0 95 0 0 -185 0 -185 95 0 95 0 0 -265 0 -265 90 0 90 0 0 450 0 450 95 0 95
0 0 -450 0 -450 95 0 95 0 0 265 0 265 90 0 90 0 0 185 0 185 190 0 190 0 0
-90 0 -90 90 0 90 0 0 90 0 90 95 0 95 0 0 95 0 95 185 0 185 0 0 -280 0 -280
95 0 95 0 0 -265 0 -265 90 0 90 0 2 357 3 358 90 0 90 0 3 -357 2 -358 95 0
95 0 0 170 0 170 90 0 90 0 2 468 3 467 93 3 92 3 0 559 0 560 185 0 185 0 0
90 0 90 -185 0 -184 0 -3 -92 -3 -93 -90 0 -90 0 -3 92 -3 93 -277 2 -277 3
-3 93 -3 92 -279 0 -280 0 0 90 0 90 -182 2 -183 3 -3 93 -3 92 -279 0 -280 0
0 70 0 70 -465 0 -465 0 0 -70z"/>
<path d="M5044 2391 c-2 -2 -4 -127 -4 -277 0 -315 11 -287 -112 -283 l-72 2
1 -26 c1 -15 1 -139 2 -277 l1 -250 90 0 90 0 0 280 0 280 70 0 70 0 0 274 0
274 -66 4 c-36 1 -68 1 -70 -1z"/>
</g>
</svg>
